<svg width="90" height="90" viewBox="0 0 90 90" fill="none" xmlns="http://www.w3.org/2000/svg">
<circle cx="45" cy="45" r="45" fill="#D3E2F8" fill-opacity="0.5"/>
<path d="M71.4615 62.4031C69.3469 62.9573 65.4677 63.4896 64.0677 62.549C63.7177 62.3156 63.3677 62.1406 63.0104 62.0094L72.8177 50.3792C73.0948 50.051 73.1531 49.599 72.9708 49.2125C72.7885 48.826 72.4021 48.5781 71.9792 48.5781H46.0792L46.0573 47.2656H57.1625C57.7677 47.2656 58.2563 46.7771 58.2563 46.1719C58.2563 33.0323 48.9229 28.8323 45.7802 27.7896L45.6271 17.3698C45.6198 16.7646 45.0948 16.2906 44.5188 16.2906C43.9135 16.2979 43.4323 16.7937 43.4396 17.399L43.4469 18.026C43.4469 18.0552 43.4396 18.0844 43.4396 18.1135V20.4687C39.5385 21.5917 23.8542 27.2573 23.8542 46.1792C23.8542 46.7844 24.3427 47.2729 24.9479 47.2729H43.8698L43.8917 48.5854H18.0208C17.6781 48.5854 17.3573 48.7458 17.1531 49.0156C16.949 49.2854 16.876 49.6427 16.9708 49.9708L20.2448 61.7177C18.8448 61.8854 17.8021 62.4615 17.7292 62.5052C17.2042 62.8042 17.0219 63.4677 17.3208 63.9927C17.6125 64.5177 18.2833 64.7073 18.8083 64.4156C18.8302 64.401 21.0177 63.2125 22.7531 64.3719C23.7448 65.0354 25.1667 65.2469 26.6031 65.2469C29.0385 65.2469 31.5031 64.6271 31.9187 64.5177C31.926 64.5177 31.9406 64.5104 31.9479 64.5104C31.9844 64.5031 32.0135 64.4885 32.05 64.4739C32.0865 64.4594 32.1229 64.4448 32.1521 64.4302C32.1594 64.4229 32.174 64.4229 32.1813 64.4156C32.2031 64.401 34.3615 63.2052 36.1187 64.3719C37.1104 65.0354 38.5323 65.2469 39.9687 65.2469C42.4042 65.2469 44.8688 64.6271 45.2844 64.5177C45.299 64.5177 45.3063 64.5104 45.3135 64.5031C45.3427 64.4958 45.3719 64.4812 45.401 64.4739C45.4448 64.4594 45.4813 64.4448 45.5177 64.4229C45.525 64.4156 45.5323 64.4156 45.5396 64.4156C45.5615 64.401 47.749 63.2125 49.4844 64.3719C50.476 65.0354 51.8979 65.2469 53.3344 65.2469C55.7698 65.2469 58.2344 64.6271 58.65 64.5177C58.6646 64.5177 58.6719 64.5104 58.6792 64.5031C58.7083 64.4958 58.7375 64.4812 58.7667 64.4739C58.8104 64.4594 58.8469 64.4448 58.8833 64.4229C58.8906 64.4156 58.8979 64.4156 58.9052 64.4156C58.9271 64.401 61.1146 63.2125 62.85 64.3719C63.8417 65.0354 65.2635 65.2469 66.7 65.2469C69.1354 65.2469 71.6 64.6271 72.0156 64.5177C72.599 64.3646 72.949 63.7667 72.7958 63.1833C72.6427 62.6 72.0448 62.2573 71.4615 62.4031ZM43.4396 28.5479C43.4396 28.5625 43.4396 28.5771 43.4396 28.5917V31.2896V45.0781H26.0635C26.6177 29.1167 39.2469 23.9906 43.4469 22.7292V28.5479H43.4396ZM56.0469 45.0854H46.0281L45.8094 30.1229C48.8646 31.2896 55.5875 35.001 56.0469 45.0854ZM61.0271 60.9667C60.8521 61.1781 60.7719 61.4333 60.7719 61.6885C59.4375 61.7614 58.3583 62.2427 57.9719 62.4323C55.8354 62.9792 52.0729 63.475 50.6875 62.549C48.1208 60.8354 45.2771 62.0896 44.6063 62.4323C42.4698 62.9792 38.7073 63.475 37.3219 62.549C34.7552 60.8354 31.9115 62.0896 31.2406 62.4323C29.1042 62.9792 25.3417 63.475 23.9562 62.549C23.4531 62.2135 22.9354 61.9948 22.4323 61.8635C22.4615 61.7031 22.4615 61.5427 22.4104 61.375L19.4573 50.7729H45H45.0146H69.624L61.0271 60.9667ZM71.4615 66.8656C69.3469 67.4198 65.4677 67.9521 64.0604 67.0115C61.4937 65.3052 58.65 66.5521 57.9792 66.8948C55.8427 67.4417 52.0802 67.9375 50.6948 67.0115C48.1281 65.3052 45.2844 66.5521 44.6135 66.8948C42.4771 67.4417 38.7146 67.9375 37.3292 67.0115C34.7625 65.3052 31.9188 66.5521 31.2479 66.8875C29.1115 67.4344 25.349 67.9302 23.9635 67.0115C21.0979 65.101 17.8677 66.8948 17.7292 66.9677C17.2042 67.2667 17.0219 67.9302 17.3208 68.4552C17.6125 68.9802 18.2833 69.1698 18.8083 68.8781C18.8302 68.8635 21.0177 67.675 22.7531 68.8344C23.7448 69.4979 25.1667 69.7094 26.6031 69.7094C29.0385 69.7094 31.5031 69.0896 31.9187 68.9802C31.9333 68.9802 31.9406 68.9729 31.9552 68.9656C31.9844 68.9583 32.0063 68.9437 32.0354 68.9365C32.0792 68.9219 32.1229 68.9073 32.1594 68.8854C32.1667 68.8781 32.174 68.8781 32.1813 68.8781C32.2031 68.8635 34.3906 67.675 36.126 68.8344C37.1177 69.4979 38.5396 69.7094 39.976 69.7094C42.4115 69.7094 44.876 69.0896 45.2917 68.9802C45.3063 68.9802 45.3135 68.9729 45.3281 68.9656C45.3573 68.9583 45.3792 68.9437 45.4083 68.9365C45.4521 68.9219 45.4885 68.9073 45.5323 68.8854C45.5396 68.8781 45.5469 68.8781 45.5542 68.8781C45.576 68.8635 47.7635 67.675 49.499 68.8344C50.4906 69.4979 51.9125 69.7094 53.349 69.7094C55.7844 69.7094 58.249 69.0896 58.6646 68.9802C58.6792 68.9802 58.6865 68.9729 58.701 68.9656C58.7302 68.9583 58.7521 68.9437 58.7813 68.9365C58.825 68.9219 58.8615 68.9073 58.9052 68.8854C58.9125 68.8781 58.9198 68.8781 58.9271 68.8781C58.949 68.8635 61.1365 67.675 62.8719 68.8344C63.8635 69.4979 65.2854 69.7094 66.7219 69.7094C69.1573 69.7094 71.6219 69.0896 72.0375 68.9802C72.6208 68.8271 72.9708 68.2292 72.8177 67.6458C72.6427 67.0625 72.0448 66.7125 71.4615 66.8656Z" fill="#6398E7"/>
</svg>
